<svg xmlns="http://www.w3.org/2000/svg" width="900" height="700" viewBox="0 0 900 700">
  <defs>
    <style>
      .bg{fill:#f5efe6}
      .brand{fill:#0f2942;font-family:Segoe UI, Roboto, Arial, Helvetica, sans-serif;font-weight:700}
      .brand-title{font-size:86px}
      .brand-sub{font-size:28px}
      .section{font-size:64px}
      .course{font-size:40px}
    </style>
  </defs>
  <rect class="bg" x="0" y="0" width="900" height="700"/>
  <g transform="translate(60,80)">
    <path fill="#0f2942" d="M0 0h110v120c0 2-1 4-3 5l-52 26a6 6 0 0 1-5 0L-2 125c-2-1-3-3-3-5V0z"/>
    <path fill="#f5efe6" d="M26 28h58v8H26zm0 18h58v8H26zm0 18h58v8H26z"/>
    <text class="brand brand-title" x="130" y="60">MITS</text>
    <text class="brand brand-sub" x="130" y="100">DEEMED TO BE UNIVERSITY</text>

    <text class="brand section" x="0" y="210">ADMISSION</text>
    <text class="brand section" x="0" y="280">FORM</text>
    <text class="brand course" x="0" y="340">MCA / MBA</text>
  </g>
  <g transform="translate(520,220)">
    <circle cx="130" cy="130" r="120" fill="#0f2942" opacity="0.08"/>
    <rect x="60" y="60" width="140" height="160" rx="16" fill="#0f2942" opacity="0.12"/>
    <circle cx="130" cy="110" r="46" fill="#0f2942" opacity="0.25"/>
    <rect x="90" y="155" width="80" height="60" rx="8" fill="#0f2942" opacity="0.25"/>
  </g>
</svg>